<svg xmlns="http://www.w3.org/2000/svg" width="1024" height="1024" viewBox="0 0 1024 1024">
<g>
<path d="M 359.68 468.98 C350.20,474.47 348.10,475.29 342.68,475.63 C330.52,476.40 319.40,469.17 313.36,456.57 C310.59,450.80 310.00,448.39 310.00,442.96 C310.00,429.94 314.35,422.87 326.72,415.79 C331.00,413.34 338.89,408.78 344.24,405.66 C374.66,387.93 379.22,385.12 383.99,384.70 C384.88,384.62 385.79,384.62 386.88,384.63 C387.23,384.63 387.60,384.63 388.00,384.63 C409.00,384.60 424.55,405.85 418.57,426.41 C416.37,433.99 410.61,439.72 397.99,446.91 C388.92,452.08 384.20,454.80 359.68,468.98 ZM 330.50 467.13 C335.46,469.40 344.74,469.55 349.78,467.45 C351.83,466.60 356.65,464.07 360.50,461.81 C364.35,459.56 371.66,455.31 376.75,452.36 C406.43,435.16 408.60,433.53 411.78,426.00 C414.03,420.67 413.63,410.33 410.96,404.64 C405.92,393.91 391.70,388.38 379.88,392.54 C377.47,393.39 371.45,396.50 366.50,399.45 C361.55,402.40 352.77,407.52 347.00,410.84 C320.85,425.88 318.05,428.42 315.90,439.15 C314.97,443.78 315.06,445.70 316.44,450.44 C318.40,457.19 324.45,464.36 330.50,467.13 ZM 399.00 603.34 C394.46,605.20 386.33,606.06 382.42,605.09 C379.57,604.38 373.17,600.85 349.50,586.94 C344.55,584.04 336.67,579.44 332.00,576.73 C321.60,570.71 320.03,569.29 316.42,562.70 C314.00,558.29 313.57,556.34 313.54,549.80 C313.49,540.02 314.63,538.72 318.75,543.84 C322.68,548.73 374.72,579.69 382.44,581.73 C391.72,584.19 401.46,580.67 409.09,572.11 C415.03,565.45 415.96,566.01 415.98,576.22 C416.01,587.62 408.64,599.39 399.00,603.34 ZM 209.50 490.65 C199.99,495.09 191.75,493.77 178.18,485.63 C175.05,483.76 166.88,478.96 160.00,474.96 C132.55,459.02 128.56,455.99 125.60,448.89 C123.97,444.99 123.21,432.86 124.37,429.33 C125.03,427.31 125.48,427.55 130.80,432.83 C136.28,438.27 148.43,445.82 181.88,464.58 C191.37,469.90 192.72,470.38 198.40,470.38 C206.56,470.38 212.43,467.50 219.05,460.25 C225.10,453.63 225.96,454.12 225.98,464.17 C226.01,475.67 219.63,485.92 209.50,490.65 ZM 159.10 605.82 C154.58,607.39 146.45,607.24 141.50,605.51 C136.28,603.68 126.49,593.42 125.06,588.28 C123.85,583.91 123.67,571.07 124.80,569.29 C125.31,568.48 126.70,569.61 129.03,572.76 C134.02,579.49 143.01,584.00 151.44,584.00 C151.64,584.00 151.83,584.00 152.02,584.00 C153.14,584.00 154.07,584.01 154.99,583.92 C159.58,583.49 163.96,580.86 190.95,565.15 C207.09,555.76 215.93,549.97 219.30,546.59 C225.34,540.51 226.19,541.29 225.79,552.58 C225.28,566.86 222.23,570.00 191.90,587.50 C185.22,591.35 175.88,596.78 171.13,599.57 C166.38,602.36 160.97,605.17 159.10,605.82 ZM 282.36 669.52 C275.03,672.99 267.97,673.58 261.48,671.26 C249.10,666.83 242.02,656.87 242.01,643.88 C242.00,638.56 242.96,632.99 243.88,633.03 C244.22,633.04 245.54,634.73 246.81,636.78 C250.96,643.48 261.37,649.00 269.85,649.00 C279.17,649.00 290.65,642.44 294.56,634.89 C297.06,630.05 298.00,631.54 298.00,640.32 C298.00,655.52 293.26,664.37 282.36,669.52 ZM 282.80 447.41 C275.40,451.10 264.59,451.10 257.19,447.41 C250.92,444.28 245.35,437.80 243.42,431.38 C241.80,426.02 241.49,412.00 242.99,412.00 C243.53,412.00 245.11,413.72 246.50,415.82 C250.62,422.05 257.58,426.40 265.94,427.99 C275.82,429.86 288.08,424.36 293.66,415.55 C295.22,413.09 296.84,411.06 297.25,411.04 C298.66,410.97 298.03,427.55 296.45,432.21 C294.33,438.41 289.05,444.30 282.80,447.41 ZM 503.78 470.25 L 503.50 480.50 L 497.00 481.13 L 497.00 433.00 L 509.07 433.00 C515.70,433.00 522.00,433.46 523.06,434.03 C526.21,435.72 528.00,440.44 528.00,447.05 C528.00,452.71 527.73,453.47 524.60,456.60 C521.26,459.94 521.04,460.00 512.64,460.00 L 504.07 460.00 ZM 500.34 544.75 C499.08,546.80 495.16,547.83 493.80,546.46 C493.50,546.17 495.04,541.11 497.22,535.21 C499.39,529.32 502.88,519.51 504.96,513.42 C509.89,498.99 510.46,498.00 513.79,498.00 C516.37,498.01 516.76,498.71 521.90,512.75 C524.86,520.86 528.77,531.53 530.58,536.45 C532.39,541.37 533.65,545.76 533.38,546.20 C533.10,546.64 531.61,547.00 530.05,547.00 C527.41,547.00 527.04,546.46 524.36,538.75 L 521.50 530.50 L 513.89 530.21 L 506.27 529.92 L 504.00 536.21 C502.74,539.67 501.10,543.51 500.34,544.75 ZM 641.00 424.72 C639.62,425.41 636.92,425.98 635.00,425.98 C631.23,426.00 624.85,423.24 624.25,421.33 C623.64,419.37 627.80,418.74 630.21,420.44 C634.74,423.61 640.50,421.90 642.28,416.85 C642.79,415.41 642.15,415.27 637.10,415.73 C627.05,416.64 623.60,412.62 623.59,400.00 C623.58,387.29 626.64,384.41 638.99,385.50 L 647.00 386.21 L 647.00 401.35 C647.00,418.00 645.90,422.27 641.00,424.72 ZM 698.50 610.69 C696.85,610.79 693.45,611.18 690.95,611.55 C686.96,612.13 686.02,611.89 683.23,609.54 C675.19,602.77 676.66,583.92 685.46,581.01 C688.82,579.90 691.36,580.05 695.35,581.58 C696.61,582.07 696.95,581.11 697.20,576.34 C697.47,571.14 697.75,570.46 699.77,570.18 L 702.04 569.86 L 701.77 590.18 L 701.50 610.50 ZM 557.00 545.61 C555.08,545.68 551.92,546.04 550.00,546.42 C546.17,547.16 540.95,544.69 539.19,541.30 C537.41,537.88 536.87,529.97 538.02,524.41 C539.74,516.11 544.83,513.63 555.00,516.13 C556.18,516.42 556.56,515.27 556.80,510.75 C557.06,505.80 557.37,505.00 559.07,505.00 C560.98,505.00 561.03,505.68 560.77,525.24 L 560.50 545.48 ZM 524.76 413.80 C522.97,414.88 519.03,416.01 516.00,416.30 C506.17,417.25 500.47,414.71 496.79,407.74 C494.85,404.05 494.56,401.94 494.53,391.50 C494.50,380.98 494.77,378.99 496.72,375.35 C499.94,369.33 504.47,366.88 512.35,366.88 C524.37,366.88 534.75,373.88 527.57,377.15 C525.56,378.07 524.69,377.90 522.50,376.18 C518.77,373.25 512.24,372.46 507.64,374.38 C502.60,376.48 501.00,380.61 501.00,391.50 C501.00,405.73 504.54,410.68 514.08,409.77 C517.03,409.48 520.33,408.39 522.02,407.14 C525.39,404.65 525.88,404.60 528.33,406.45 C530.69,408.24 529.34,411.03 524.76,413.80 ZM 897.41 543.06 C891.18,549.28 881.12,547.12 878.31,538.97 C875.41,530.54 877.81,519.18 883.07,516.46 C888.89,513.45 895.83,515.09 899.05,520.23 C900.77,522.97 901.05,524.83 900.80,531.73 C900.52,539.41 900.29,540.17 897.41,543.06 ZM 721.06 414.97 C720.00,415.54 716.93,416.00 714.24,416.00 C710.40,416.00 708.87,415.49 707.15,413.66 C703.19,409.45 701.82,399.79 704.04,391.78 C705.43,386.79 708.27,385.00 714.80,385.00 C719.31,385.00 720.59,385.43 722.92,387.76 C728.80,393.65 727.58,411.48 721.06,414.97 ZM 816.65 544.49 C810.24,548.69 801.50,546.43 799.31,540.00 C797.49,534.68 797.72,525.07 799.75,521.01 C802.05,516.44 805.34,514.82 811.33,515.32 C818.88,515.95 820.43,518.14 820.83,528.78 C821.20,538.52 820.24,542.14 816.65,544.49 ZM 552.88 414.37 C549.98,416.41 542.16,416.50 539.36,414.54 C535.89,412.11 534.76,407.81 535.15,398.45 C535.47,390.45 535.70,389.65 538.31,387.41 C540.37,385.64 542.30,385.00 545.61,385.00 C554.72,385.00 558.00,389.01 558.00,400.18 C558.00,407.01 556.18,412.06 552.88,414.37 ZM 513.50 570.50 L 512.50 611.50 L 509.96 611.80 C508.57,611.96 507.10,611.77 506.71,611.38 C506.32,610.99 506.00,601.52 506.00,590.33 L 506.00 570.00 L 495.00 570.00 L 495.00 562.95 L 524.50 563.50 L 524.50 566.50 C524.50,569.41 524.33,569.52 519.00,570.00 ZM 673.49 413.83 C670.05,416.54 661.63,416.83 658.12,414.37 C651.06,409.42 651.40,389.42 658.60,386.14 C659.97,385.51 663.13,385.00 665.62,385.00 C671.90,385.00 675.41,388.53 676.38,395.80 C676.76,398.69 676.81,401.50 676.48,402.03 C676.15,402.56 671.86,403.00 666.94,403.00 C658.03,403.00 658.00,403.01 658.00,405.55 C658.00,406.95 659.15,409.25 660.57,410.66 C662.63,412.72 663.74,413.10 666.25,412.60 C667.97,412.26 670.10,411.31 671.00,410.50 C672.37,409.26 672.93,409.23 674.45,410.34 C676.15,411.58 676.09,411.78 673.49,413.83 ZM 615.01 413.49 C613.54,414.82 610.99,415.53 606.69,415.80 C601.20,416.14 600.26,415.92 598.37,413.84 C594.82,409.93 594.00,407.42 594.00,400.53 C594.00,392.98 595.84,387.69 599.06,385.97 C600.36,385.27 603.54,384.96 606.70,385.23 C613.93,385.82 616.18,388.10 617.06,395.72 C617.42,398.90 617.53,401.84 617.30,402.25 C617.07,402.66 612.62,403.00 607.42,403.00 L 597.96 403.00 L 598.58 405.75 C599.28,408.87 603.33,413.00 605.69,413.00 C606.55,413.00 608.71,412.11 610.47,411.02 C613.13,409.38 613.97,409.25 615.40,410.30 C617.02,411.49 617.00,411.69 615.01,413.49 ZM 580.00 610.65 C578.08,610.73 574.70,611.06 572.50,611.39 C567.67,612.10 564.92,611.05 562.68,607.63 C560.34,604.06 560.58,600.60 563.41,597.31 C565.45,594.94 566.79,594.43 572.16,594.00 L 578.50 593.50 L 578.81 589.75 C579.09,586.43 578.80,585.87 576.31,584.92 C573.47,583.84 568.95,584.06 565.76,585.45 C564.56,585.97 563.81,585.68 563.36,584.50 C561.86,580.58 571.60,578.84 578.35,581.83 C583.92,584.29 584.17,585.11 583.79,599.50 L 583.50 610.50 ZM 586.59 479.76 C585.36,480.51 570.83,481.00 569.23,480.34 C566.84,479.36 564.79,473.94 565.46,470.37 C566.27,466.03 569.20,464.15 576.60,463.23 C582.12,462.55 582.52,462.32 582.82,459.69 C583.00,458.14 582.61,456.23 581.95,455.44 C580.61,453.82 572.37,453.48 570.06,454.94 C569.07,455.57 568.23,455.33 567.38,454.18 C566.36,452.78 566.51,452.30 568.33,451.29 C571.76,449.36 580.04,449.72 583.69,451.95 L 586.88 453.90 L 587.19 466.55 C587.36,473.50 587.09,479.45 586.59,479.76 ZM 680.78 467.14 L 680.50 480.28 L 672.28 480.67 C663.27,481.11 660.77,479.91 659.42,474.53 C657.78,467.99 661.35,464.38 670.60,463.23 C676.12,462.55 676.52,462.32 676.82,459.69 C677.00,458.14 676.61,456.23 675.95,455.44 C674.60,453.81 666.85,453.47 664.13,454.93 C662.83,455.62 662.09,455.37 661.18,453.91 C660.12,452.21 660.29,451.84 662.55,450.98 C666.89,449.33 674.20,449.82 677.78,452.01 L 681.06 454.01 ZM 753.50 545.56 C751.30,545.62 748.15,545.95 746.50,546.31 C740.84,547.52 736.00,543.41 736.00,537.39 C736.00,531.89 738.71,529.77 746.59,529.09 C753.47,528.50 753.50,528.48 753.81,525.35 C754.04,522.98 753.54,521.79 751.83,520.60 C749.34,518.85 743.35,518.49 741.03,519.96 C740.10,520.55 739.10,520.50 738.28,519.82 C736.17,518.07 736.79,517.14 740.90,515.91 C746.19,514.33 753.16,515.48 755.90,518.39 C757.92,520.54 758.04,521.55 757.78,533.08 L 757.50 545.46 ZM 636.00 610.70 C634.08,610.82 630.60,611.21 628.28,611.56 C624.48,612.14 623.74,611.90 621.03,609.18 C617.46,605.61 616.96,600.51 619.84,596.95 C621.31,595.13 623.04,594.57 628.59,594.09 C635.47,593.50 635.50,593.48 635.81,590.35 C636.04,587.98 635.54,586.79 633.83,585.60 C631.28,583.81 625.81,583.49 623.04,584.98 C621.71,585.69 620.87,585.55 619.98,584.48 C618.96,583.24 619.38,582.74 622.59,581.40 C627.22,579.46 633.24,580.04 636.91,582.78 C639.46,584.69 639.50,584.91 639.50,597.60 L 639.50 610.48 ZM 574.00 533.09 C573.57,543.86 573.27,545.52 571.75,545.81 C570.15,546.12 570.00,544.90 570.00,531.20 L 570.00 516.26 L 575.98 515.58 C579.48,515.19 582.74,515.32 583.84,515.92 C585.15,516.61 586.68,516.57 588.78,515.78 C593.01,514.18 599.76,516.19 600.53,519.29 C600.83,520.50 600.95,526.89 600.79,533.49 C600.54,543.97 600.28,545.52 598.75,545.81 C597.16,546.12 597.00,544.99 597.00,533.09 C597.00,520.12 596.99,520.03 594.58,519.43 C588.76,517.97 588.54,518.40 588.00,532.51 C587.53,544.67 587.37,545.50 585.50,545.50 C583.62,545.50 583.48,544.74 583.22,532.76 L 582.94 520.02 L 580.32 519.36 C575.23,518.09 574.55,519.58 574.00,533.09 ZM 623.84 479.69 C623.25,480.41 622.36,481.00 621.88,481.00 C621.39,481.00 621.00,474.29 621.00,466.10 L 621.00 451.20 L 626.90 450.51 C630.58,450.08 633.57,450.24 634.84,450.92 C636.19,451.64 637.09,451.66 637.50,451.00 C638.35,449.63 645.33,449.74 648.48,451.17 C651.84,452.70 652.13,454.25 651.79,468.50 C651.55,478.37 651.23,480.50 650.00,480.50 C648.77,480.50 648.45,478.38 648.22,468.56 C648.05,461.57 647.46,456.06 646.80,455.26 C646.17,454.50 644.31,454.03 642.59,454.20 L 639.50 454.50 L 639.00 467.00 C638.53,478.67 638.37,479.50 636.50,479.50 C634.63,479.50 634.47,478.67 634.00,467.00 L 633.50 454.50 L 625.50 454.50 L 625.22 466.44 C625.06,473.14 624.46,478.95 623.84,479.69 ZM 536.00 598.20 C535.57,608.87 535.27,610.52 533.75,610.81 C532.13,611.12 532.00,609.56 532.00,589.07 C532.00,567.67 532.06,567.00 534.00,567.00 C535.81,567.00 536.00,567.67 536.00,574.06 L 536.00 581.12 L 540.39 580.46 C545.35,579.72 551.36,581.93 553.07,585.12 C553.62,586.15 553.94,592.24 553.78,598.74 C553.52,609.74 553.37,610.50 551.50,610.50 C549.62,610.50 549.48,609.74 549.22,598.21 C548.94,586.09 548.90,585.91 546.40,584.96 C545.01,584.43 542.89,584.01 541.68,584.02 C537.00,584.05 536.53,585.21 536.00,598.20 ZM 539.77 468.49 C539.53,478.98 539.28,480.52 537.75,480.81 C536.13,481.12 536.00,479.56 536.00,459.07 C536.00,437.67 536.06,437.00 538.00,437.00 C539.80,437.00 540.00,437.67 540.00,443.75 L 540.00 450.50 L 546.40 450.50 C556.43,450.50 557.00,451.38 557.00,466.99 C557.00,473.96 556.73,479.94 556.40,480.26 C556.07,480.59 555.17,480.62 554.40,480.32 C553.31,479.90 553.00,477.18 553.00,467.93 C553.00,454.86 552.58,454.00 546.26,454.00 C540.66,454.00 540.07,455.33 539.77,468.49 ZM 804.94 541.15 C808.07,543.69 811.62,543.47 814.55,540.55 C816.72,538.37 817.00,537.22 817.00,530.55 C817.00,521.67 815.28,519.00 809.57,519.00 C803.48,519.00 801.46,522.88 802.21,533.19 C802.56,538.02 803.13,539.68 804.94,541.15 ZM 710.52 410.61 C713.57,413.66 716.45,413.64 719.55,410.55 C721.74,408.35 722.00,407.25 722.00,400.12 C722.00,392.70 721.82,392.00 719.37,390.07 C713.88,385.76 708.64,388.56 707.46,396.42 C706.53,402.59 707.64,407.73 710.52,410.61 ZM 541.45 410.55 C544.55,413.64 547.13,413.65 550.69,410.59 C553.34,408.31 553.50,407.70 553.50,400.12 C553.50,391.15 552.61,389.47 547.30,388.41 C544.74,387.90 543.64,388.26 541.57,390.34 C539.26,392.65 539.00,393.68 539.00,400.50 C539.00,407.23 539.28,408.37 541.45,410.55 ZM 631.03 411.03 C633.65,413.65 636.29,413.52 639.69,410.59 C642.34,408.31 642.50,407.70 642.50,400.12 C642.50,391.20 641.60,389.47 636.45,388.44 C631.39,387.43 628.74,390.45 628.21,397.81 C627.68,405.11 628.37,408.37 631.03,411.03 ZM 729.74 482.00 C727.02,488.98 726.01,490.56 724.07,490.84 C722.13,491.12 721.85,490.85 722.47,489.34 C724.24,484.98 725.26,482.65 725.41,480.28 C725.60,477.31 724.44,474.25 721.69,467.02 C721.50,466.53 721.31,466.02 721.11,465.49 C718.30,458.10 716.00,451.82 716.00,451.53 C716.00,451.24 717.03,451.00 718.30,451.00 C720.32,451.00 721.02,452.23 724.05,461.00 C725.95,466.50 727.93,470.86 728.46,470.68 C728.98,470.51 731.01,466.01 732.96,460.70 C735.98,452.45 736.83,451.03 738.73,451.02 C740.93,451.00 740.90,451.14 737.00,462.25 C734.83,468.44 731.56,477.33 729.74,482.00 ZM 544.07 540.37 C546.79,543.82 550.86,543.85 554.08,540.42 C556.20,538.16 556.50,536.90 556.50,530.33 C556.50,523.65 556.24,522.61 554.14,520.91 C551.08,518.43 546.53,518.47 544.00,521.00 C541.06,523.94 541.10,536.59 544.07,540.37 ZM 884.07 540.37 C886.61,543.59 891.12,543.88 894.00,541.00 C895.68,539.32 896.00,537.67 896.00,530.56 C896.00,522.97 895.78,521.96 893.78,520.56 C890.71,518.41 886.39,518.61 884.00,521.00 C881.06,523.94 881.10,536.59 884.07,540.37 ZM 685.00 606.00 C687.62,608.62 691.79,608.54 694.69,605.83 C696.72,603.91 697.00,602.71 697.00,595.83 C697.00,586.88 695.29,584.00 690.00,584.00 C684.67,584.00 683.00,586.87 683.00,596.00 C683.00,602.67 683.33,604.33 685.00,606.00 ZM 832.78 533.20 C832.53,543.97 832.28,545.52 830.75,545.81 C829.15,546.12 829.00,544.89 829.00,531.06 L 829.00 515.97 L 831.75 516.00 C833.26,516.01 836.14,515.75 838.14,515.41 C842.09,514.76 848.43,517.07 849.37,519.52 C850.16,521.59 850.33,543.66 849.56,544.91 C849.19,545.51 848.25,546.00 847.47,546.00 C846.34,546.00 846.00,543.43 845.78,533.25 L 845.50 520.50 L 841.77 519.58 C839.25,518.96 837.24,519.03 835.55,519.79 C833.12,520.90 833.06,521.21 832.78,533.20 ZM 627.00 533.20 C626.57,543.87 626.27,545.52 624.75,545.81 C623.15,546.12 623.00,544.89 623.00,531.00 C623.00,515.90 623.01,515.86 625.25,516.08 C626.49,516.21 628.74,515.96 630.26,515.54 C634.03,514.50 639.71,515.71 642.06,518.06 C643.77,519.77 644.00,521.45 644.00,532.33 C644.00,539.12 643.73,544.94 643.40,545.26 C643.07,545.59 642.17,545.62 641.40,545.32 C640.31,544.90 640.00,542.17 640.00,532.87 C640.00,521.00 639.99,520.95 637.43,519.98 C636.02,519.44 633.89,519.01 632.68,519.02 C628.00,519.05 627.53,520.21 627.00,533.20 ZM 677.68 545.93 C676.14,546.52 674.11,546.97 673.18,546.94 C670.36,546.85 664.67,544.57 664.28,543.37 C663.72,541.64 666.74,540.93 669.44,542.15 C672.30,543.46 678.32,542.53 679.98,540.53 C680.62,539.75 681.01,538.10 680.83,536.86 C680.57,535.06 679.30,534.26 674.50,532.84 C667.79,530.86 665.00,528.21 665.00,523.82 C665.00,519.61 666.49,517.37 670.13,516.11 C676.46,513.90 685.41,515.59 682.97,518.54 C682.09,519.60 680.74,519.85 678.37,519.41 C671.88,518.19 667.79,520.86 669.94,524.90 C670.46,525.86 673.63,527.48 677.00,528.50 C683.61,530.50 685.00,532.02 685.00,537.26 C685.00,541.02 682.34,544.17 677.68,545.93 ZM 652.77 598.49 C652.53,608.98 652.28,610.52 650.75,610.81 C649.15,611.12 649.00,609.89 649.00,596.17 L 649.00 581.20 L 652.75 581.04 C654.81,580.95 658.18,580.81 660.24,580.73 C662.63,580.65 664.98,581.34 666.74,582.66 L 669.50 584.72 L 669.50 597.59 C669.50,609.06 669.31,610.51 667.75,610.81 C666.16,611.12 666.00,610.04 666.00,599.13 C666.00,587.85 665.86,587.02 663.78,585.56 C661.10,583.68 657.00,583.54 654.71,585.25 C653.34,586.27 652.99,588.66 652.77,598.49 ZM 504.00 439.00 L 504.00 454.00 L 510.69 454.00 C516.17,454.00 517.79,453.61 519.69,451.83 C522.41,449.27 522.75,444.51 520.44,441.22 C519.07,439.26 518.00,439.00 511.44,439.00 ZM 707.93 479.54 C706.37,480.34 702.82,481.00 700.04,481.00 C695.87,481.00 694.60,480.55 692.74,478.44 C689.88,475.16 689.22,472.86 689.10,465.72 C688.98,458.84 690.87,453.79 694.43,451.45 C699.54,448.11 714.50,451.93 710.80,455.63 C709.55,456.88 708.98,456.87 706.43,455.54 C703.31,453.91 698.27,453.54 696.31,454.79 C691.61,457.78 692.25,474.46 697.17,477.09 C699.64,478.41 704.70,477.58 707.04,475.46 C709.01,473.68 712.12,474.52 711.32,476.62 C711.01,477.42 709.48,478.73 707.93,479.54 ZM 704.81 543.75 C704.42,545.84 700.35,546.46 697.50,544.87 C693.54,542.66 693.00,540.92 693.00,530.42 C693.00,521.96 692.72,520.11 691.39,519.60 C689.91,519.03 689.91,518.78 691.39,516.53 C692.28,515.17 693.00,512.25 693.00,510.04 C693.00,506.70 693.34,506.00 694.95,506.00 C696.56,506.00 696.94,506.82 697.20,510.75 C697.50,515.47 697.52,515.50 701.31,515.81 C704.25,516.06 705.05,516.51 704.80,517.81 C704.58,518.97 703.30,519.60 700.74,519.81 L 697.00 520.12 L 697.00 529.86 C697.00,540.52 697.64,542.00 702.27,542.00 C704.47,542.00 705.07,542.41 704.81,543.75 ZM 779.81 543.75 C779.42,545.84 775.35,546.46 772.50,544.87 C768.54,542.66 768.00,540.92 768.00,530.42 C768.00,522.27 767.70,520.10 766.50,519.64 C764.59,518.91 764.55,516.39 766.44,515.66 C767.36,515.31 768.00,513.34 768.19,510.30 C768.41,506.84 768.92,505.50 770.00,505.50 C771.10,505.50 771.58,506.88 771.80,510.75 L 772.10 516.00 L 776.13 516.00 C779.41,516.00 780.09,516.32 779.82,517.75 C779.58,518.97 778.36,519.59 775.74,519.81 L 772.00 520.12 L 772.00 529.86 C772.00,540.52 772.64,542.00 777.27,542.00 C779.47,542.00 780.07,542.41 779.81,543.75 ZM 739.78 403.67 C739.54,413.03 739.27,414.52 737.75,414.81 C736.17,415.11 736.00,414.10 736.00,404.54 C736.00,396.04 735.70,393.82 734.50,393.36 C733.67,393.05 733.00,392.21 733.00,391.52 C733.00,390.82 733.67,389.68 734.50,389.00 C735.40,388.26 736.00,386.07 736.00,383.57 C736.00,381.27 736.59,378.58 737.31,377.59 C738.76,375.61 748.00,374.01 748.00,375.75 C748.00,377.27 745.80,378.77 743.00,379.15 C740.79,379.46 740.47,380.04 740.20,384.25 C739.89,388.97 739.91,389.00 743.01,389.00 C745.68,389.00 746.09,389.33 745.82,391.25 C745.56,393.05 744.96,393.44 742.78,393.18 L 740.07 392.87 ZM 913.78 534.74 C913.54,544.04 913.27,545.52 911.75,545.81 C910.17,546.11 910.00,545.09 910.00,535.18 C910.00,526.35 909.71,524.10 908.50,523.64 C907.67,523.32 907.00,522.42 907.00,521.64 C907.00,520.85 907.67,519.95 908.50,519.64 C909.53,519.24 910.00,517.64 910.00,514.53 C910.00,508.60 912.46,506.00 918.08,506.00 C922.68,506.00 923.22,508.28 918.75,508.81 C915.13,509.24 913.82,511.22 914.19,515.67 C914.43,518.58 914.98,519.56 916.50,519.80 C920.74,520.47 921.31,520.92 919.99,522.51 C919.31,523.33 917.70,524.00 916.41,524.00 C914.12,524.00 914.06,524.22 913.78,534.74 ZM 717.00 533.66 C716.57,543.79 716.25,545.53 714.79,545.81 C712.32,546.28 711.88,543.37 712.21,529.00 C712.48,517.30 712.63,516.49 714.50,516.40 C715.60,516.35 718.19,515.96 720.25,515.54 C722.31,515.12 725.58,515.07 727.51,515.44 C730.55,516.01 730.89,516.34 730.02,517.95 C729.24,519.42 728.23,519.71 725.26,519.33 C718.49,518.46 717.58,520.04 717.00,533.66 ZM 585.50 395.00 C585.50,414.46 585.50,414.50 583.25,414.82 L 581.00 415.14 L 581.00 374.86 L 583.25 375.18 C585.50,375.50 585.50,375.54 585.50,395.00 ZM 601.00 468.59 C600.54,479.43 599.71,482.38 597.69,480.35 C597.31,479.98 597.00,473.25 597.00,465.41 L 597.00 451.16 L 603.48 450.47 C611.71,449.58 615.44,450.38 614.12,452.75 C613.44,453.96 612.10,454.36 609.34,454.17 C602.43,453.68 601.57,455.17 601.00,468.59 ZM 571.00 394.38 C571.00,409.37 570.70,414.01 569.66,414.87 C568.92,415.48 568.02,415.69 567.66,415.32 C567.30,414.96 567.00,405.74 567.00,394.83 C567.00,375.67 567.07,375.00 569.00,375.00 C570.93,375.00 571.00,375.67 571.00,394.38 ZM 608.77 590.74 C608.53,608.61 608.34,610.51 606.75,610.81 C605.13,611.12 605.00,609.65 605.00,591.07 C605.00,571.60 605.06,571.00 607.02,571.00 C608.99,571.00 609.04,571.51 608.77,590.74 ZM 598.56 398.09 C598.86,398.59 602.03,399.00 605.59,399.00 C610.63,399.00 612.20,398.64 612.68,397.38 C614.52,392.61 608.19,386.84 603.08,388.64 C600.48,389.55 597.34,396.12 598.56,398.09 ZM 658.00 396.18 L 658.00 399.09 L 664.74 398.80 C670.34,398.55 671.54,398.19 671.83,396.67 C672.74,391.90 669.23,388.00 664.03,388.00 C661.43,388.00 658.00,392.66 658.00,396.18 ZM 595.50 595.99 C595.50,609.00 595.32,610.51 593.75,610.81 C591.16,611.31 590.91,609.73 591.22,594.95 C591.48,582.26 591.61,581.50 593.50,581.50 C595.41,581.50 595.50,582.17 595.50,595.99 ZM 741.57 541.43 C743.53,543.39 746.06,543.42 750.60,541.52 C753.75,540.21 754.10,539.69 753.82,536.77 C753.51,533.63 753.31,533.49 748.78,533.20 C746.19,533.03 743.15,533.38 742.03,533.98 C739.60,535.29 739.35,539.21 741.57,541.43 ZM 623.57 606.43 C625.53,608.38 628.06,608.42 632.53,606.55 C635.41,605.35 636.00,604.58 636.00,602.07 C636.00,599.66 635.48,598.91 633.46,598.40 C630.48,597.65 625.25,598.54 623.35,600.13 C621.54,601.63 621.64,604.50 623.57,606.43 ZM 664.44 475.55 C666.29,478.37 668.60,478.61 673.60,476.52 C676.75,475.21 677.10,474.69 676.82,471.77 C676.55,468.99 676.06,468.45 673.59,468.17 C665.39,467.23 661.21,470.61 664.44,475.55 ZM 570.56 475.78 C572.38,478.37 574.71,478.57 579.60,476.52 C582.75,475.21 583.10,474.69 582.82,471.77 C582.52,468.68 582.26,468.48 578.17,468.19 C573.65,467.86 569.00,469.95 569.00,472.30 C569.00,472.99 569.70,474.56 570.56,475.78 ZM 613.78 530.74 C613.53,543.85 613.31,545.51 611.75,545.81 C610.15,546.12 610.00,544.89 610.00,531.07 C610.00,516.60 610.08,516.00 612.03,516.00 C613.98,516.00 614.04,516.51 613.78,530.74 ZM 656.78 530.74 C656.53,543.85 656.31,545.51 654.75,545.81 C653.15,546.12 653.00,544.89 653.00,531.07 C653.00,516.60 653.08,516.00 655.03,516.00 C656.98,516.00 657.04,516.51 656.78,530.74 ZM 567.25 606.88 C568.73,608.40 575.34,607.79 577.59,605.93 C578.50,605.17 578.98,603.43 578.80,601.59 C578.53,598.84 578.11,598.47 574.94,598.20 C569.33,597.73 566.00,599.43 566.00,602.78 C566.00,604.33 566.56,606.18 567.25,606.88 ZM 789.78 530.67 C789.52,544.36 788.85,547.52 786.69,545.35 C786.31,544.98 786.00,538.22 786.00,530.33 C786.00,516.60 786.09,516.00 788.03,516.00 C789.98,516.00 790.04,516.51 789.78,530.67 ZM 509.00 522.25 C509.00,523.33 516.77,523.18 517.45,522.08 C518.21,520.85 514.68,511.45 513.55,511.69 C512.73,511.86 509.00,520.52 509.00,522.25 ZM 595.82 573.24 C595.27,577.07 591.00,576.71 591.00,572.83 C591.00,571.53 591.74,571.00 593.57,571.00 C595.66,571.00 596.08,571.42 595.82,573.24 ZM 790.00 507.89 C790.00,510.33 789.57,511.00 788.00,511.00 C786.53,511.00 786.00,510.33 786.00,508.50 C786.00,507.12 786.19,506.00 786.42,506.00 C786.65,506.00 787.55,505.73 788.42,505.39 C789.65,504.92 790.00,505.47 790.00,507.89 ZM 613.50 507.99 C613.50,509.60 612.86,510.60 611.68,510.82 C610.20,511.11 609.91,510.63 610.18,508.34 C610.59,504.74 613.50,504.43 613.50,507.99 ZM 656.50 507.99 C656.50,509.60 655.86,510.60 654.68,510.82 C653.20,511.11 652.91,510.63 653.18,508.34 C653.59,504.74 656.50,504.43 656.50,507.99 Z" fill="rgb(2,76,126)"/>
<path d="M 244.67 633.55 C244.46,633.46 244.05,633.03 243.88,633.03 C243.18,633.00 242.47,636.16 242.16,640.00 C242.17,639.51 242.18,639.01 242.20,638.50 L 242.50 629.50 ZM 276.16 648.12 C274.02,648.69 271.88,649.00 269.85,649.00 C267.05,649.00 264.04,648.40 261.12,647.35 C265.96,648.93 271.17,649.23 276.16,648.12 ZM 249.63 663.82 C252.73,667.03 256.71,669.55 261.48,671.26 C262.27,671.54 263.07,671.78 263.88,671.98 C258.50,670.86 253.56,668.09 249.63,663.82 ZM 288.37 641.90 C290.95,639.63 293.74,636.47 294.56,634.89 C293.07,637.77 290.46,640.52 287.29,642.81 C287.66,642.52 288.02,642.22 288.37,641.90 Z" fill="rgb(28,97,142)"/>
<path d="M 151.44 584.00 C143.01,584.00 134.02,579.49 129.03,572.76 C126.70,569.61 125.31,568.48 124.80,569.29 C124.07,570.45 123.88,576.25 124.18,581.38 C124.00,578.85 123.88,575.96 123.87,573.24 C123.84,567.33 123.77,559.12 123.71,555.00 C123.63,549.15 124.07,546.62 125.71,543.50 C129.40,536.51 132.03,534.53 157.00,519.99 C163.88,515.98 173.26,510.46 177.85,507.72 C190.91,499.94 197.05,498.64 206.94,501.58 C213.76,503.60 220.99,510.23 223.99,517.20 C225.89,521.62 226.11,523.44 225.59,530.41 C225.25,534.86 225.02,539.62 225.08,541.00 C225.11,541.81 225.14,542.58 225.17,543.32 C224.31,542.03 222.56,543.31 219.30,546.59 C215.93,549.97 207.09,555.76 190.95,565.15 C163.96,580.86 159.58,583.49 154.99,583.92 C154.12,584.00 153.24,584.00 152.19,584.00 L 152.02 584.00 C151.87,584.00 151.72,584.00 151.57,584.00 ZM 219.85 569.01 C216.84,572.20 211.89,575.68 201.97,581.60 C210.83,576.30 216.37,572.54 219.85,569.01 ZM 129.54 595.54 C133.21,599.95 138.24,604.37 141.50,605.51 C138.15,604.33 133.18,599.97 129.54,595.54 Z" fill="rgb(38,195,242)"/>
<path d="M 244.67 633.55 L 242.50 629.50 L 242.25 636.90 C242.09,629.06 242.01,618.36 242.01,604.93 C242.00,554.97 242.01,554.90 249.95,546.95 C255.53,541.37 261.80,539.00 270.93,539.01 C282.23,539.03 291.46,544.98 295.96,555.17 C297.95,559.67 298.02,561.50 297.97,604.39 C297.95,617.60 297.93,627.39 297.78,634.79 C297.38,631.19 296.39,631.35 294.56,634.89 C293.74,636.47 290.95,639.63 288.37,641.90 C288.02,642.22 287.66,642.52 287.29,642.81 C283.99,645.19 280.07,647.08 276.16,648.12 C271.17,649.23 265.96,648.93 261.12,647.35 C256.71,645.77 252.49,643.18 249.47,640.11 L 249.47 640.11 L 249.46 640.11 C249.25,639.89 249.05,639.68 248.85,639.46 L 248.85 639.46 C248.06,638.59 247.38,637.70 246.81,636.78 C246.17,635.75 245.52,634.81 244.99,634.13 ZM 292.10 662.02 C294.10,659.45 295.57,656.44 296.54,652.90 C295.69,657.32 294.32,659.38 292.10,662.02 ZM 254.64 668.11 C254.17,667.81 253.70,667.50 253.23,667.16 C252.04,666.32 250.82,665.16 249.64,663.82 C251.16,665.48 252.84,666.92 254.64,668.11 ZM 242.99 651.84 C243.23,652.81 243.53,653.75 243.87,654.66 C243.57,653.92 243.31,653.18 243.12,652.48 C243.07,652.32 243.03,652.11 242.99,651.84 Z" fill="rgb(65,186,119)"/>
<path d="M 415.05 568.10 C414.13,566.94 412.38,568.42 409.09,572.11 C401.46,580.67 391.72,584.19 382.44,581.73 C374.72,579.69 322.68,548.73 318.75,543.84 C315.72,540.07 314.30,539.78 313.78,543.79 C313.80,537.05 313.78,531.33 313.71,526.00 C313.61,518.48 316.52,511.70 322.16,506.31 C330.22,498.60 343.37,496.63 353.28,501.64 C360.53,505.30 403.80,530.75 407.67,533.63 C412.47,537.19 416.10,545.43 416.13,552.86 C416.15,556.22 415.65,560.54 415.02,562.44 C414.20,564.91 414.18,566.47 414.94,567.89 C414.98,567.95 415.01,568.03 415.05,568.10 ZM 411.29 592.29 C413.56,588.59 415.13,584.37 415.72,580.07 C415.33,583.08 414.61,586.03 413.62,588.22 C413.02,589.55 412.22,590.93 411.29,592.29 ZM 415.86 578.87 C415.94,577.98 415.99,577.10 415.98,576.22 C415.98,573.82 415.92,571.95 415.76,570.58 C416.15,572.85 416.17,575.85 415.86,578.87 Z" fill="rgb(118,91,79)"/>
<path d="M 124.05 430.85 C123.44,435.21 124.06,444.12 125.31,448.10 C124.48,446.10 124.00,444.15 124.00,442.53 C124.00,440.95 123.44,440.00 122.50,440.00 C120.63,440.00 120.56,437.09 122.35,434.47 C122.93,433.63 123.61,432.16 124.05,430.85 ZM 123.87 573.85 C123.90,576.39 124.01,579.03 124.18,581.38 C124.27,583.08 124.42,584.72 124.62,586.08 C124.51,585.58 124.43,585.09 124.36,584.63 C123.96,581.70 123.23,580.00 122.36,580.00 C121.61,580.00 121.00,579.10 121.00,578.00 C121.00,576.90 121.61,576.00 122.36,576.00 C122.99,576.00 123.50,575.16 123.87,573.85 ZM 124.01 548.54 C123.75,550.23 123.67,552.25 123.71,555.00 C123.74,556.77 123.77,559.30 123.79,562.08 C122.85,558.10 122.99,552.95 124.01,548.54 ZM 126.01 590.51 C126.84,592.05 128.08,593.79 129.54,595.54 C131.73,598.20 134.39,600.83 136.90,602.77 C133.19,600.00 129.10,595.85 126.94,592.38 C126.63,591.88 126.31,591.24 126.01,590.51 ZM 130.76 432.79 C132.72,434.74 135.49,436.93 139.75,439.79 C135.50,436.94 132.73,434.75 130.80,432.83 C126.19,428.25 125.24,427.46 124.64,428.65 L 125.02 427.09 ZM 130.58 456.09 C134.90,460.11 142.89,465.03 160.00,474.96 C140.22,463.47 134.01,459.50 130.58,456.09 Z" fill="rgb(179,201,216)"/>
<path d="M 297.77 412.15 C297.65,411.44 297.47,411.03 297.25,411.04 C296.84,411.06 295.22,413.09 293.66,415.55 C288.08,424.36 275.82,429.86 265.94,427.99 C257.58,426.40 250.62,422.05 246.50,415.82 C245.11,413.72 243.53,412.00 242.99,412.00 C242.65,412.00 242.40,412.72 242.24,413.90 C241.48,387.45 241.91,340.79 243.50,336.01 C246.94,325.63 257.95,318.00 269.48,318.00 C280.84,318.00 289.37,322.66 294.75,331.82 L 297.50 336.50 L 297.74 382.00 C297.81,395.05 297.85,404.78 297.77,412.15 ZM 288.51 443.59 C291.90,440.65 294.64,436.93 296.14,433.03 C295.19,436.36 293.71,438.15 291.46,440.77 C290.72,441.64 289.67,442.62 288.51,443.59 ZM 243.44 431.46 C244.50,434.94 246.63,438.44 249.36,441.40 C246.62,438.43 244.48,434.93 243.45,431.49 C243.44,431.48 243.44,431.47 243.44,431.46 Z" fill="rgb(236,53,46)"/>
<path d="M 0.00 0.00 L 1024.00 0.00 L 1024.00 1024.00 L 0.00 1024.00 ZM 159.10 605.82 C160.97,605.17 166.38,602.36 171.13,599.57 C175.88,596.78 185.22,591.35 191.90,587.50 C195.66,585.33 199.00,583.38 201.97,581.60 C202.00,581.59 202.02,581.58 202.04,581.56 C211.91,575.66 216.85,572.19 219.85,569.01 C224.62,564.18 225.53,559.81 225.79,552.58 C225.97,547.39 225.89,544.42 225.17,543.32 C225.14,542.58 225.11,541.81 225.08,541.00 C225.02,539.62 225.25,534.86 225.59,530.41 C226.11,523.44 225.89,521.62 223.99,517.20 C220.99,510.23 213.76,503.60 206.94,501.58 C197.05,498.64 190.91,499.94 177.85,507.72 C173.26,510.46 163.88,515.98 157.00,519.99 C132.03,534.53 129.40,536.51 125.71,543.50 C124.84,545.15 124.31,546.64 124.01,548.54 C122.99,552.95 122.85,558.10 123.79,562.08 C123.83,565.76 123.86,569.87 123.87,573.24 C123.87,573.44 123.87,573.65 123.87,573.85 C123.82,574.04 123.76,574.23 123.70,574.40 C123.43,574.16 122.99,574.00 122.50,574.00 C121.68,574.00 121.00,574.45 121.00,575.00 C121.00,575.53 121.63,575.97 122.41,576.00 C122.40,576.00 122.38,576.00 122.36,576.00 C121.61,576.00 121.00,576.90 121.00,578.00 C121.00,579.10 121.61,580.00 122.36,580.00 C122.38,580.00 122.39,580.00 122.41,580.00 C120.92,580.05 120.54,581.21 121.67,582.33 C122.61,583.27 123.57,583.16 123.89,582.24 C124.08,582.90 124.24,583.70 124.36,584.63 C124.43,585.09 124.51,585.58 124.62,586.08 C124.75,586.94 124.90,587.69 125.06,588.28 C125.25,588.95 125.57,589.70 126.01,590.51 C126.31,591.24 126.63,591.88 126.94,592.38 C129.10,595.85 133.19,600.00 136.90,602.77 C138.57,604.06 140.16,605.04 141.50,605.51 C146.45,607.24 154.58,607.39 159.10,605.82 ZM 209.50 490.65 C219.63,485.92 226.01,475.67 225.98,464.17 C225.96,454.12 225.10,453.63 219.05,460.25 C219.00,460.31 218.95,460.37 218.90,460.42 C224.53,454.20 226.60,447.51 225.75,438.23 C224.67,426.32 221.30,422.90 195.92,408.03 C165.29,390.07 160.38,387.07 155.24,386.59 C154.21,386.49 153.17,386.50 151.92,386.51 C151.62,386.51 151.32,386.51 151.01,386.51 C144.58,386.52 142.73,386.94 138.17,389.46 C129.32,394.35 124.15,402.20 123.25,412.15 C122.55,419.90 124.14,425.73 129.51,431.55 L 125.02 427.09 L 124.64 428.65 C124.54,428.83 124.46,429.06 124.37,429.33 C124.24,429.73 124.13,430.25 124.05,430.85 C123.61,432.16 122.93,433.63 122.35,434.47 C120.56,437.09 120.63,440.00 122.50,440.00 C121.68,440.00 121.00,440.45 121.00,441.00 C121.00,441.55 121.68,442.00 122.50,442.00 C123.12,442.00 123.65,441.75 123.88,441.39 C123.96,441.72 124.00,442.10 124.00,442.53 C124.00,444.15 124.48,446.10 125.31,448.10 C125.40,448.39 125.50,448.66 125.60,448.89 C126.71,451.57 127.97,453.66 130.58,456.09 C134.01,459.50 140.22,463.47 160.00,474.96 C166.88,478.96 175.05,483.76 178.18,485.63 C191.75,493.77 199.99,495.09 209.50,490.65 ZM 399.00 603.34 C403.91,601.33 408.24,597.28 411.29,592.29 C412.22,590.93 413.02,589.55 413.62,588.22 C414.61,586.03 415.33,583.08 415.72,580.07 C415.78,579.67 415.82,579.27 415.86,578.87 C416.17,575.85 416.15,572.85 415.76,570.58 C415.62,569.36 415.39,568.54 415.05,568.10 C415.01,568.03 414.98,567.95 414.94,567.89 C414.18,566.47 414.20,564.91 415.02,562.44 C415.65,560.54 416.15,556.22 416.13,552.86 C416.10,545.43 412.47,537.19 407.67,533.63 C403.80,530.75 360.53,505.30 353.28,501.64 C343.37,496.63 330.22,498.60 322.16,506.31 C316.52,511.70 313.61,518.48 313.71,526.00 C313.78,531.33 313.80,537.05 313.78,543.79 C313.60,545.22 313.52,547.22 313.54,549.80 C313.57,556.34 314.00,558.29 316.42,562.70 C320.03,569.29 321.60,570.71 332.00,576.73 C336.67,579.44 344.55,584.04 349.50,586.94 C373.17,600.85 379.57,604.38 382.42,605.09 C386.33,606.06 394.46,605.20 399.00,603.34 ZM 282.36 669.52 C286.45,667.59 289.67,665.13 292.10,662.02 C294.32,659.38 295.69,657.32 296.54,652.90 C297.53,649.29 298.00,645.12 298.00,640.32 C298.00,637.95 297.93,636.12 297.78,634.79 C297.93,627.39 297.95,617.60 297.97,604.39 C298.02,561.50 297.95,559.67 295.96,555.17 C291.46,544.98 282.23,539.03 270.93,539.01 C261.80,539.00 255.53,541.37 249.95,546.95 C242.01,554.90 242.00,554.97 242.01,604.93 C242.01,618.36 242.09,629.06 242.25,636.90 L 242.20 638.50 C242.18,639.01 242.17,639.51 242.16,640.00 C242.06,641.25 242.00,642.57 242.01,643.88 C242.01,646.68 242.34,649.34 242.99,651.84 C243.03,652.11 243.07,652.32 243.12,652.48 C243.31,653.18 243.57,653.92 243.87,654.66 C245.16,658.12 247.10,661.20 249.63,663.82 L 249.64 663.82 C250.82,665.16 252.04,666.32 253.23,667.16 C253.70,667.50 254.17,667.81 254.64,668.11 C257.47,670.00 260.59,671.30 263.88,671.98 C269.70,673.39 275.92,672.57 282.36,669.52 ZM 282.80 447.41 C284.83,446.40 286.76,445.10 288.51,443.59 L 288.51 443.59 C289.67,442.62 290.72,441.64 291.46,440.77 C293.71,438.15 295.19,436.36 296.14,433.03 C296.25,432.76 296.35,432.48 296.45,432.21 C297.78,428.29 298.44,415.94 297.77,412.15 C297.85,404.78 297.81,395.05 297.74,382.00 L 297.50 336.50 L 294.75 331.82 C289.37,322.66 280.84,318.00 269.48,318.00 C257.95,318.00 246.94,325.63 243.50,336.01 C241.91,340.79 241.48,387.45 242.24,413.90 C241.70,417.92 242.17,427.24 243.42,431.38 C243.42,431.41 243.43,431.43 243.44,431.46 C243.44,431.47 243.44,431.48 243.45,431.49 C244.48,434.93 246.62,438.43 249.36,441.40 C251.64,443.88 254.34,445.99 257.19,447.41 C264.59,451.10 275.40,451.10 282.80,447.41 ZM 359.68 468.98 C384.20,454.80 388.92,452.08 397.99,446.91 C410.61,439.72 416.37,433.99 418.57,426.41 C424.55,405.85 409.00,384.60 388.00,384.63 C387.60,384.63 387.23,384.63 386.88,384.63 C385.79,384.62 384.88,384.62 383.99,384.70 C379.22,385.12 374.66,387.93 344.24,405.66 C338.89,408.78 331.00,413.34 326.72,415.79 C314.35,422.87 310.00,429.94 310.00,442.96 C310.00,448.39 310.59,450.80 313.36,456.57 C319.40,469.17 330.52,476.40 342.68,475.63 C348.10,475.29 350.20,474.47 359.68,468.98 ZM 330.50 467.13 C324.45,464.36 318.40,457.19 316.44,450.44 C315.06,445.70 314.97,443.78 315.90,439.15 C318.05,428.42 320.85,425.88 347.00,410.84 C352.77,407.52 361.55,402.40 366.50,399.45 C371.45,396.50 377.47,393.39 379.88,392.54 C391.70,388.38 405.92,393.91 410.96,404.64 C413.63,410.33 414.03,420.67 411.78,426.00 C408.60,433.53 406.43,435.16 376.75,452.36 C371.66,455.31 364.35,459.56 360.50,461.81 C356.65,464.07 351.83,466.60 349.78,467.45 C344.74,469.55 335.46,469.40 330.50,467.13 ZM 503.78 470.25 L 504.07 460.00 L 512.64 460.00 C521.04,460.00 521.26,459.94 524.60,456.60 C527.73,453.47 528.00,452.71 528.00,447.05 C528.00,440.44 526.21,435.72 523.06,434.03 C522.00,433.46 515.70,433.00 509.07,433.00 L 497.00 433.00 L 497.00 481.13 L 503.50 480.50 ZM 500.34 544.75 C501.10,543.51 502.74,539.67 504.00,536.21 L 506.27 529.92 L 513.89 530.21 L 521.50 530.50 L 524.36 538.75 C527.04,546.46 527.41,547.00 530.05,547.00 C531.61,547.00 533.10,546.64 533.38,546.20 C533.65,545.76 532.39,541.37 530.58,536.45 C528.77,531.53 524.86,520.86 521.90,512.75 C516.76,498.71 516.37,498.01 513.79,498.00 C510.46,498.00 509.89,498.99 504.96,513.42 C502.88,519.51 499.39,529.32 497.22,535.21 C495.04,541.11 493.50,546.17 493.80,546.46 C495.16,547.83 499.08,546.80 500.34,544.75 ZM 641.00 424.72 C645.90,422.27 647.00,418.00 647.00,401.35 L 647.00 386.21 L 638.99 385.50 C626.64,384.41 623.58,387.29 623.59,400.00 C623.60,412.62 627.05,416.64 637.10,415.73 C642.15,415.27 642.79,415.41 642.28,416.85 C640.50,421.90 634.74,423.61 630.21,420.44 C627.80,418.74 623.64,419.37 624.25,421.33 C624.85,423.24 631.23,426.00 635.00,425.98 C636.92,425.98 639.62,425.41 641.00,424.72 ZM 698.50 610.69 L 701.50 610.50 L 701.77 590.18 L 702.04 569.86 L 699.77 570.18 C697.75,570.46 697.47,571.14 697.20,576.34 C696.95,581.11 696.61,582.07 695.35,581.58 C691.36,580.05 688.82,579.90 685.46,581.01 C676.66,583.92 675.19,602.77 683.23,609.54 C686.02,611.89 686.96,612.13 690.95,611.55 C693.45,611.18 696.85,610.79 698.50,610.69 ZM 557.00 545.61 L 560.50 545.48 L 560.77 525.24 C561.03,505.68 560.98,505.00 559.07,505.00 C557.37,505.00 557.06,505.80 556.80,510.75 C556.56,515.27 556.18,516.42 555.00,516.13 C544.83,513.63 539.74,516.11 538.02,524.41 C536.87,529.97 537.41,537.88 539.19,541.30 C540.95,544.69 546.17,547.16 550.00,546.42 C551.92,546.04 555.08,545.68 557.00,545.61 ZM 524.76 413.80 C529.34,411.03 530.69,408.24 528.33,406.45 C525.88,404.60 525.39,404.65 522.02,407.14 C520.33,408.39 517.03,409.48 514.08,409.77 C504.54,410.68 501.00,405.73 501.00,391.50 C501.00,380.61 502.60,376.48 507.64,374.38 C512.24,372.46 518.77,373.25 522.50,376.18 C524.69,377.90 525.56,378.07 527.57,377.15 C534.75,373.88 524.37,366.88 512.35,366.88 C504.47,366.88 499.94,369.33 496.72,375.35 C494.77,378.99 494.50,380.98 494.53,391.50 C494.56,401.94 494.85,404.05 496.79,407.74 C500.47,414.71 506.17,417.25 516.00,416.30 C519.03,416.01 522.97,414.88 524.76,413.80 ZM 897.41 543.06 C900.29,540.17 900.52,539.41 900.80,531.73 C901.05,524.83 900.77,522.97 899.05,520.23 C895.83,515.09 888.89,513.45 883.07,516.46 C877.81,519.18 875.41,530.54 878.31,538.97 C881.12,547.12 891.18,549.28 897.41,543.06 ZM 721.06 414.97 C727.58,411.48 728.80,393.65 722.92,387.76 C720.59,385.43 719.31,385.00 714.80,385.00 C708.27,385.00 705.43,386.79 704.04,391.78 C701.82,399.79 703.19,409.45 707.15,413.66 C708.87,415.49 710.40,416.00 714.24,416.00 C716.93,416.00 720.00,415.54 721.06,414.97 ZM 816.65 544.49 C820.24,542.14 821.20,538.52 820.83,528.78 C820.43,518.14 818.88,515.95 811.33,515.32 C805.34,514.82 802.05,516.44 799.75,521.01 C797.72,525.07 797.49,534.68 799.31,540.00 C801.50,546.43 810.24,548.69 816.65,544.49 ZM 552.88 414.37 C556.18,412.06 558.00,407.01 558.00,400.18 C558.00,389.01 554.72,385.00 545.61,385.00 C542.30,385.00 540.37,385.64 538.31,387.41 C535.70,389.65 535.47,390.45 535.15,398.45 C534.76,407.81 535.89,412.11 539.36,414.54 C542.16,416.50 549.98,416.41 552.88,414.37 ZM 513.50 570.50 L 519.00 570.00 C524.33,569.52 524.50,569.41 524.50,566.50 L 524.50 563.50 L 495.00 562.95 L 495.00 570.00 L 506.00 570.00 L 506.00 590.33 C506.00,601.52 506.32,610.99 506.71,611.38 C507.10,611.77 508.57,611.96 509.96,611.80 L 512.50 611.50 ZM 673.49 413.83 C676.09,411.78 676.15,411.58 674.45,410.34 C672.93,409.23 672.37,409.26 671.00,410.50 C670.10,411.31 667.97,412.26 666.25,412.60 C663.74,413.10 662.63,412.72 660.57,410.66 C659.15,409.25 658.00,406.95 658.00,405.55 C658.00,403.01 658.03,403.00 666.94,403.00 C671.86,403.00 676.15,402.56 676.48,402.03 C676.81,401.50 676.76,398.69 676.38,395.80 C675.41,388.53 671.90,385.00 665.62,385.00 C663.13,385.00 659.97,385.51 658.60,386.14 C651.40,389.42 651.06,409.42 658.12,414.37 C661.63,416.83 670.05,416.54 673.49,413.83 ZM 615.01 413.49 C617.00,411.69 617.02,411.49 615.40,410.30 C613.97,409.25 613.13,409.38 610.47,411.02 C608.71,412.11 606.55,413.00 605.69,413.00 C603.33,413.00 599.28,408.87 598.58,405.75 L 597.96 403.00 L 607.42 403.00 C612.62,403.00 617.07,402.66 617.30,402.25 C617.53,401.84 617.42,398.90 617.06,395.72 C616.18,388.10 613.93,385.82 606.70,385.23 C603.54,384.96 600.36,385.27 599.06,385.97 C595.84,387.69 594.00,392.98 594.00,400.53 C594.00,407.42 594.82,409.93 598.37,413.84 C600.26,415.92 601.20,416.14 606.69,415.80 C610.99,415.53 613.54,414.82 615.01,413.49 ZM 580.00 610.65 L 583.50 610.50 L 583.79 599.50 C584.17,585.11 583.92,584.29 578.35,581.83 C571.60,578.84 561.86,580.58 563.36,584.50 C563.81,585.68 564.56,585.97 565.76,585.45 C568.95,584.06 573.47,583.84 576.31,584.92 C578.80,585.87 579.09,586.43 578.81,589.75 L 578.50 593.50 L 572.16 594.00 C566.79,594.43 565.45,594.94 563.41,597.31 C560.58,600.60 560.34,604.06 562.68,607.63 C564.92,611.05 567.67,612.10 572.50,611.39 C574.70,611.06 578.08,610.73 580.00,610.65 ZM 586.59 479.76 C587.09,479.45 587.36,473.50 587.19,466.55 L 586.88 453.90 L 583.69 451.95 C580.04,449.72 571.76,449.36 568.33,451.29 C566.51,452.30 566.36,452.78 567.38,454.18 C568.23,455.33 569.07,455.57 570.06,454.94 C572.37,453.48 580.61,453.82 581.95,455.44 C582.61,456.23 583.00,458.14 582.82,459.69 C582.52,462.32 582.12,462.55 576.60,463.23 C569.20,464.15 566.27,466.03 565.46,470.37 C564.79,473.94 566.84,479.36 569.23,480.34 C570.83,481.00 585.36,480.51 586.59,479.76 ZM 680.78 467.14 L 681.06 454.01 L 677.78 452.01 C674.20,449.82 666.89,449.33 662.55,450.98 C660.29,451.84 660.12,452.21 661.18,453.91 C662.09,455.37 662.83,455.62 664.13,454.93 C666.85,453.47 674.60,453.81 675.95,455.44 C676.61,456.23 677.00,458.14 676.82,459.69 C676.52,462.32 676.12,462.55 670.60,463.23 C661.35,464.38 657.78,467.99 659.42,474.53 C660.77,479.91 663.27,481.11 672.28,480.67 L 680.50 480.28 ZM 753.50 545.56 L 757.50 545.46 L 757.78 533.08 C758.04,521.55 757.92,520.54 755.90,518.39 C753.16,515.48 746.19,514.33 740.90,515.91 C736.79,517.14 736.17,518.07 738.28,519.82 C739.10,520.50 740.10,520.55 741.03,519.96 C743.35,518.49 749.34,518.85 751.83,520.60 C753.54,521.79 754.04,522.98 753.81,525.35 C753.50,528.48 753.47,528.50 746.59,529.09 C738.71,529.77 736.00,531.89 736.00,537.39 C736.00,543.41 740.84,547.52 746.50,546.31 C748.15,545.95 751.30,545.62 753.50,545.56 ZM 636.00 610.70 L 639.50 610.48 L 639.50 597.60 C639.50,584.91 639.46,584.69 636.91,582.78 C633.24,580.04 627.22,579.46 622.59,581.40 C619.38,582.74 618.96,583.24 619.98,584.48 C620.87,585.55 621.71,585.69 623.04,584.98 C625.81,583.49 631.28,583.81 633.83,585.60 C635.54,586.79 636.04,587.98 635.81,590.35 C635.50,593.48 635.47,593.50 628.59,594.09 C623.04,594.57 621.31,595.13 619.84,596.95 C616.96,600.51 617.46,605.61 621.03,609.18 C623.74,611.90 624.48,612.14 628.28,611.56 C630.60,611.21 634.08,610.82 636.00,610.70 ZM 574.00 533.09 C574.55,519.58 575.23,518.09 580.32,519.36 L 582.94 520.02 L 583.22 532.76 C583.48,544.74 583.62,545.50 585.50,545.50 C587.37,545.50 587.53,544.67 588.00,532.51 C588.54,518.40 588.76,517.97 594.58,519.43 C596.99,520.03 597.00,520.12 597.00,533.09 C597.00,544.99 597.16,546.12 598.75,545.81 C600.28,545.52 600.54,543.97 600.79,533.49 C600.95,526.89 600.83,520.50 600.53,519.29 C599.76,516.19 593.01,514.18 588.78,515.78 C586.68,516.57 585.15,516.61 583.84,515.92 C582.74,515.32 579.48,515.19 575.98,515.58 L 570.00 516.26 L 570.00 531.20 C570.00,544.90 570.15,546.12 571.75,545.81 C573.27,545.52 573.57,543.86 574.00,533.09 ZM 623.84 479.69 C624.46,478.95 625.06,473.14 625.22,466.44 L 625.50 454.50 L 633.50 454.50 L 634.00 467.00 C634.47,478.67 634.63,479.50 636.50,479.50 C638.37,479.50 638.53,478.67 639.00,467.00 L 639.50 454.50 L 642.59 454.20 C644.31,454.03 646.17,454.50 646.80,455.26 C647.46,456.06 648.05,461.57 648.22,468.56 C648.45,478.38 648.77,480.50 650.00,480.50 C651.23,480.50 651.55,478.37 651.79,468.50 C652.13,454.25 651.84,452.70 648.48,451.17 C645.33,449.74 638.35,449.63 637.50,451.00 C637.09,451.66 636.19,451.64 634.84,450.92 C633.57,450.24 630.58,450.08 626.90,450.51 L 621.00 451.20 L 621.00 466.10 C621.00,474.29 621.39,481.00 621.88,481.00 C622.36,481.00 623.25,480.41 623.84,479.69 ZM 536.00 598.20 C536.53,585.21 537.00,584.05 541.68,584.02 C542.89,584.01 545.01,584.43 546.40,584.96 C548.90,585.91 548.94,586.09 549.22,598.21 C549.48,609.74 549.62,610.50 551.50,610.50 C553.37,610.50 553.52,609.74 553.78,598.74 C553.94,592.24 553.62,586.15 553.07,585.12 C551.36,581.93 545.35,579.72 540.39,580.46 L 536.00 581.12 L 536.00 574.06 C536.00,567.67 535.81,567.00 534.00,567.00 C532.06,567.00 532.00,567.67 532.00,589.07 C532.00,609.56 532.13,611.12 533.75,610.81 C535.27,610.52 535.57,608.87 536.00,598.20 ZM 539.77 468.49 C540.07,455.33 540.66,454.00 546.26,454.00 C552.58,454.00 553.00,454.86 553.00,467.93 C553.00,477.18 553.31,479.90 554.40,480.32 C555.17,480.62 556.07,480.59 556.40,480.26 C556.73,479.94 557.00,473.96 557.00,466.99 C557.00,451.38 556.43,450.50 546.40,450.50 L 540.00 450.50 L 540.00 443.75 C540.00,437.67 539.80,437.00 538.00,437.00 C536.06,437.00 536.00,437.67 536.00,459.07 C536.00,479.56 536.13,481.12 537.75,480.81 C539.28,480.52 539.53,478.98 539.77,468.49 ZM 804.94 541.15 C803.13,539.68 802.56,538.02 802.21,533.19 C801.46,522.88 803.48,519.00 809.57,519.00 C815.28,519.00 817.00,521.67 817.00,530.55 C817.00,537.22 816.72,538.37 814.55,540.55 C811.62,543.47 808.07,543.69 804.94,541.15 ZM 710.52 410.61 C707.64,407.73 706.53,402.59 707.46,396.42 C708.64,388.56 713.88,385.76 719.37,390.07 C721.82,392.00 722.00,392.70 722.00,400.12 C722.00,407.25 721.74,408.35 719.55,410.55 C716.45,413.64 713.57,413.66 710.52,410.61 ZM 541.45 410.55 C539.28,408.37 539.00,407.23 539.00,400.50 C539.00,393.68 539.26,392.65 541.57,390.34 C543.64,388.26 544.74,387.90 547.30,388.41 C552.61,389.47 553.50,391.15 553.50,400.12 C553.50,407.70 553.34,408.31 550.69,410.59 C547.13,413.65 544.55,413.64 541.45,410.55 ZM 631.03 411.03 C628.37,408.37 627.68,405.11 628.21,397.81 C628.74,390.45 631.39,387.43 636.45,388.44 C641.60,389.47 642.50,391.20 642.50,400.12 C642.50,407.70 642.34,408.31 639.69,410.59 C636.29,413.52 633.65,413.65 631.03,411.03 ZM 729.74 482.00 C731.56,477.33 734.83,468.44 737.00,462.25 C740.90,451.14 740.93,451.00 738.73,451.02 C736.83,451.03 735.98,452.45 732.96,460.70 C731.01,466.01 728.98,470.51 728.46,470.68 C727.93,470.86 725.95,466.50 724.05,461.00 C721.02,452.23 720.32,451.00 718.30,451.00 C717.03,451.00 716.00,451.24 716.00,451.53 C716.00,451.82 718.30,458.10 721.11,465.49 C721.31,466.02 721.50,466.53 721.69,467.02 C724.44,474.25 725.60,477.31 725.41,480.28 C725.26,482.65 724.24,484.98 722.47,489.34 C721.85,490.85 722.13,491.12 724.07,490.84 C726.01,490.56 727.02,488.98 729.74,482.00 ZM 544.07 540.37 C541.10,536.59 541.06,523.94 544.00,521.00 C546.53,518.47 551.08,518.43 554.14,520.91 C556.24,522.61 556.50,523.65 556.50,530.33 C556.50,536.90 556.20,538.16 554.08,540.42 C550.86,543.85 546.79,543.82 544.07,540.37 ZM 884.07 540.37 C881.10,536.59 881.06,523.94 884.00,521.00 C886.39,518.61 890.71,518.41 893.78,520.56 C895.78,521.96 896.00,522.97 896.00,530.56 C896.00,537.67 895.68,539.32 894.00,541.00 C891.12,543.88 886.61,543.59 884.07,540.37 ZM 685.00 606.00 C683.33,604.33 683.00,602.67 683.00,596.00 C683.00,586.87 684.67,584.00 690.00,584.00 C695.29,584.00 697.00,586.88 697.00,595.83 C697.00,602.71 696.72,603.91 694.69,605.83 C691.79,608.54 687.62,608.62 685.00,606.00 ZM 832.78 533.20 C833.06,521.21 833.12,520.90 835.55,519.79 C837.24,519.03 839.25,518.96 841.77,519.58 L 845.50 520.50 L 845.78 533.25 C846.00,543.43 846.34,546.00 847.47,546.00 C848.25,546.00 849.19,545.51 849.56,544.91 C850.33,543.66 850.16,521.59 849.37,519.52 C848.43,517.07 842.09,514.76 838.14,515.41 C836.14,515.75 833.26,516.01 831.75,516.00 L 829.00 515.97 L 829.00 531.06 C829.00,544.89 829.15,546.12 830.75,545.81 C832.28,545.52 832.53,543.97 832.78,533.20 ZM 627.00 533.20 C627.53,520.21 628.00,519.05 632.68,519.02 C633.89,519.01 636.02,519.44 637.43,519.98 C639.99,520.95 640.00,521.00 640.00,532.87 C640.00,542.17 640.31,544.90 641.40,545.32 C642.17,545.62 643.07,545.59 643.40,545.26 C643.73,544.94 644.00,539.12 644.00,532.33 C644.00,521.45 643.77,519.77 642.06,518.06 C639.71,515.71 634.03,514.50 630.26,515.54 C628.74,515.96 626.49,516.21 625.25,516.08 C623.01,515.86 623.00,515.90 623.00,531.00 C623.00,544.89 623.15,546.12 624.75,545.81 C626.27,545.52 626.57,543.87 627.00,533.20 ZM 677.68 545.93 C682.34,544.17 685.00,541.02 685.00,537.26 C685.00,532.02 683.61,530.50 677.00,528.50 C673.63,527.48 670.46,525.86 669.94,524.90 C667.79,520.86 671.88,518.19 678.37,519.41 C680.74,519.85 682.09,519.60 682.97,518.54 C685.41,515.59 676.46,513.90 670.13,516.11 C666.49,517.37 665.00,519.61 665.00,523.82 C665.00,528.21 667.79,530.86 674.50,532.84 C679.30,534.26 680.57,535.06 680.83,536.86 C681.01,538.10 680.62,539.75 679.98,540.53 C678.32,542.53 672.30,543.46 669.44,542.15 C666.74,540.93 663.72,541.64 664.28,543.37 C664.67,544.57 670.36,546.85 673.18,546.94 C674.11,546.97 676.14,546.52 677.68,545.93 ZM 652.77 598.49 C652.99,588.66 653.34,586.27 654.71,585.25 C657.00,583.54 661.10,583.68 663.78,585.56 C665.86,587.02 666.00,587.85 666.00,599.13 C666.00,610.04 666.16,611.12 667.75,610.81 C669.31,610.51 669.50,609.06 669.50,597.59 L 669.50 584.72 L 666.74 582.66 C664.98,581.34 662.63,580.65 660.24,580.73 C658.18,580.81 654.81,580.95 652.75,581.04 L 649.00 581.20 L 649.00 596.17 C649.00,609.89 649.15,611.12 650.75,610.81 C652.28,610.52 652.53,608.98 652.77,598.49 ZM 504.00 439.00 L 511.44 439.00 C518.00,439.00 519.07,439.26 520.44,441.22 C522.75,444.51 522.41,449.27 519.69,451.83 C517.79,453.61 516.17,454.00 510.69,454.00 L 504.00 454.00 ZM 707.93 479.54 C709.48,478.73 711.01,477.42 711.32,476.62 C712.12,474.52 709.01,473.68 707.04,475.46 C704.70,477.58 699.64,478.41 697.17,477.09 C692.25,474.46 691.61,457.78 696.31,454.79 C698.27,453.54 703.31,453.91 706.43,455.54 C708.98,456.87 709.55,456.88 710.80,455.63 C714.50,451.93 699.54,448.11 694.43,451.45 C690.87,453.79 688.98,458.84 689.10,465.72 C689.22,472.86 689.88,475.16 692.74,478.44 C694.60,480.55 695.87,481.00 700.04,481.00 C702.82,481.00 706.37,480.34 707.93,479.54 ZM 704.81 543.75 C705.07,542.41 704.47,542.00 702.27,542.00 C697.64,542.00 697.00,540.52 697.00,529.86 L 697.00 520.12 L 700.74 519.81 C703.30,519.60 704.58,518.97 704.80,517.81 C705.05,516.51 704.25,516.06 701.31,515.81 C697.52,515.50 697.50,515.47 697.20,510.75 C696.94,506.82 696.56,506.00 694.95,506.00 C693.34,506.00 693.00,506.70 693.00,510.04 C693.00,512.25 692.28,515.17 691.39,516.53 C689.91,518.78 689.91,519.03 691.39,519.60 C692.72,520.11 693.00,521.96 693.00,530.42 C693.00,540.92 693.54,542.66 697.50,544.87 C700.35,546.46 704.42,545.84 704.81,543.75 ZM 779.81 543.75 C780.07,542.41 779.47,542.00 777.27,542.00 C772.64,542.00 772.00,540.52 772.00,529.86 L 772.00 520.12 L 775.74 519.81 C778.36,519.59 779.58,518.97 779.82,517.75 C780.09,516.32 779.41,516.00 776.13,516.00 L 772.10 516.00 L 771.80 510.75 C771.58,506.88 771.10,505.50 770.00,505.50 C768.92,505.50 768.41,506.84 768.19,510.30 C768.00,513.34 767.36,515.31 766.44,515.66 C764.55,516.39 764.59,518.91 766.50,519.64 C767.70,520.10 768.00,522.27 768.00,530.42 C768.00,540.92 768.54,542.66 772.50,544.87 C775.35,546.46 779.42,545.84 779.81,543.75 ZM 739.78 403.67 L 740.07 392.87 L 742.78 393.18 C744.96,393.44 745.56,393.05 745.82,391.25 C746.09,389.33 745.68,389.00 743.01,389.00 C739.91,389.00 739.89,388.97 740.20,384.25 C740.47,380.04 740.79,379.46 743.00,379.15 C745.80,378.77 748.00,377.27 748.00,375.75 C748.00,374.01 738.76,375.61 737.31,377.59 C736.59,378.58 736.00,381.27 736.00,383.57 C736.00,386.07 735.40,388.26 734.50,389.00 C733.67,389.68 733.00,390.82 733.00,391.52 C733.00,392.21 733.67,393.05 734.50,393.36 C735.70,393.82 736.00,396.04 736.00,404.54 C736.00,414.10 736.17,415.11 737.75,414.81 C739.27,414.52 739.54,413.03 739.78,403.67 ZM 913.78 534.74 C914.06,524.22 914.12,524.00 916.41,524.00 C917.70,524.00 919.31,523.33 919.99,522.51 C921.31,520.92 920.74,520.47 916.50,519.80 C914.98,519.56 914.43,518.58 914.19,515.67 C913.82,511.22 915.13,509.24 918.75,508.81 C923.22,508.28 922.68,506.00 918.08,506.00 C912.46,506.00 910.00,508.60 910.00,514.53 C910.00,517.64 909.53,519.24 908.50,519.64 C907.67,519.95 907.00,520.85 907.00,521.64 C907.00,522.42 907.67,523.32 908.50,523.64 C909.71,524.10 910.00,526.35 910.00,535.18 C910.00,545.09 910.17,546.11 911.75,545.81 C913.27,545.52 913.54,544.04 913.78,534.74 ZM 717.00 533.66 C717.58,520.04 718.49,518.46 725.26,519.33 C728.23,519.71 729.24,519.42 730.02,517.95 C730.89,516.34 730.55,516.01 727.51,515.44 C725.58,515.07 722.31,515.12 720.25,515.54 C718.19,515.96 715.60,516.35 714.50,516.40 C712.63,516.49 712.48,517.30 712.21,529.00 C711.88,543.37 712.32,546.28 714.79,545.81 C716.25,545.53 716.57,543.79 717.00,533.66 ZM 585.50 395.00 C585.50,375.54 585.50,375.50 583.25,375.18 L 581.00 374.86 L 581.00 415.14 L 583.25 414.82 C585.50,414.50 585.50,414.46 585.50,395.00 ZM 601.00 468.59 C601.57,455.17 602.43,453.68 609.34,454.17 C612.10,454.36 613.44,453.96 614.12,452.75 C615.44,450.38 611.71,449.58 603.48,450.47 L 597.00 451.16 L 597.00 465.41 C597.00,473.25 597.31,479.98 597.69,480.35 C599.71,482.38 600.54,479.43 601.00,468.59 ZM 571.00 394.38 C571.00,375.67 570.93,375.00 569.00,375.00 C567.07,375.00 567.00,375.67 567.00,394.83 C567.00,405.74 567.30,414.96 567.66,415.32 C568.02,415.69 568.92,415.48 569.66,414.87 C570.70,414.01 571.00,409.37 571.00,394.38 ZM 608.77 590.74 C609.04,571.51 608.99,571.00 607.02,571.00 C605.06,571.00 605.00,571.60 605.00,591.07 C605.00,609.65 605.13,611.12 606.75,610.81 C608.34,610.51 608.53,608.61 608.77,590.74 ZM 598.56 398.09 C597.34,396.12 600.48,389.55 603.08,388.64 C608.19,386.84 614.52,392.61 612.68,397.38 C612.20,398.64 610.63,399.00 605.59,399.00 C602.03,399.00 598.86,398.59 598.56,398.09 ZM 658.00 396.18 C658.00,392.66 661.43,388.00 664.03,388.00 C669.23,388.00 672.74,391.90 671.83,396.67 C671.54,398.19 670.34,398.55 664.74,398.80 L 658.00 399.09 ZM 595.50 595.99 C595.50,582.17 595.41,581.50 593.50,581.50 C591.61,581.50 591.48,582.26 591.22,594.95 C590.91,609.73 591.16,611.31 593.75,610.81 C595.32,610.51 595.50,609.00 595.50,595.99 ZM 741.57 541.43 C739.35,539.21 739.60,535.29 742.03,533.98 C743.15,533.38 746.19,533.03 748.78,533.20 C753.31,533.49 753.51,533.63 753.82,536.77 C754.10,539.69 753.75,540.21 750.60,541.52 C746.06,543.42 743.53,543.39 741.57,541.43 ZM 623.57 606.43 C621.64,604.50 621.54,601.63 623.35,600.13 C625.25,598.54 630.48,597.65 633.46,598.40 C635.48,598.91 636.00,599.66 636.00,602.07 C636.00,604.58 635.41,605.35 632.53,606.55 C628.06,608.42 625.53,608.38 623.57,606.43 ZM 664.44 475.55 C661.21,470.61 665.39,467.23 673.59,468.17 C676.06,468.45 676.55,468.99 676.82,471.77 C677.10,474.69 676.75,475.21 673.60,476.52 C668.60,478.61 666.29,478.37 664.44,475.55 ZM 570.56 475.78 C569.70,474.56 569.00,472.99 569.00,472.30 C569.00,469.95 573.65,467.86 578.17,468.19 C582.26,468.48 582.52,468.68 582.82,471.77 C583.10,474.69 582.75,475.21 579.60,476.52 C574.71,478.57 572.38,478.37 570.56,475.78 ZM 613.78 530.74 C614.04,516.51 613.98,516.00 612.03,516.00 C610.08,516.00 610.00,516.60 610.00,531.07 C610.00,544.89 610.15,546.12 611.75,545.81 C613.31,545.51 613.53,543.85 613.78,530.74 ZM 656.78 530.74 C657.04,516.51 656.98,516.00 655.03,516.00 C653.08,516.00 653.00,516.60 653.00,531.07 C653.00,544.89 653.15,546.12 654.75,545.81 C656.31,545.51 656.53,543.85 656.78,530.74 ZM 567.25 606.88 C566.56,606.18 566.00,604.33 566.00,602.78 C566.00,599.43 569.33,597.73 574.94,598.20 C578.11,598.47 578.53,598.84 578.80,601.59 C578.98,603.43 578.50,605.17 577.59,605.93 C575.34,607.79 568.73,608.40 567.25,606.88 ZM 789.78 530.67 C790.04,516.51 789.98,516.00 788.03,516.00 C786.09,516.00 786.00,516.60 786.00,530.33 C786.00,538.22 786.31,544.98 786.69,545.35 C788.85,547.52 789.52,544.36 789.78,530.67 ZM 509.00 522.25 C509.00,520.52 512.73,511.86 513.55,511.69 C514.68,511.45 518.21,520.85 517.45,522.08 C516.77,523.18 509.00,523.33 509.00,522.25 ZM 595.82 573.24 C596.08,571.42 595.66,571.00 593.57,571.00 C591.74,571.00 591.00,571.53 591.00,572.83 C591.00,576.71 595.27,577.07 595.82,573.24 ZM 790.00 507.89 C790.00,505.47 789.65,504.92 788.42,505.39 C787.55,505.73 786.65,506.00 786.42,506.00 C786.19,506.00 786.00,507.12 786.00,508.50 C786.00,510.33 786.53,511.00 788.00,511.00 C789.57,511.00 790.00,510.33 790.00,507.89 ZM 613.50 507.99 C613.50,504.43 610.59,504.74 610.18,508.34 C609.91,510.63 610.20,511.11 611.68,510.82 C612.86,510.60 613.50,509.60 613.50,507.99 ZM 656.50 507.99 C656.50,504.43 653.59,504.74 653.18,508.34 C652.91,510.63 653.20,511.11 654.68,510.82 C655.86,510.60 656.50,509.60 656.50,507.99 ZM 121.00 555.50 C121.00,557.42 121.45,559.00 122.00,559.00 C122.55,559.00 123.00,557.42 123.00,555.50 C123.00,553.58 122.55,552.00 122.00,552.00 C121.45,552.00 121.00,553.58 121.00,555.50 ZM 190.41 469.02 C188.38,468.17 185.83,466.80 181.88,464.58 C168.26,456.94 158.17,451.16 150.62,446.62 C175.99,461.21 185.92,466.85 190.41,469.02 ZM 217.53 461.85 C213.14,466.28 208.98,468.79 204.12,469.82 C208.92,468.54 213.52,465.84 217.53,461.85 Z" fill="rgb(254,254,254)"/>
<path d="M 130.76 432.79 L 129.51 431.55 C124.14,425.73 122.55,419.90 123.25,412.15 C124.15,402.20 129.32,394.35 138.17,389.46 C142.73,386.94 144.58,386.52 151.01,386.51 C151.32,386.51 151.62,386.51 151.92,386.51 L 151.92 386.51 C153.17,386.50 154.21,386.49 155.24,386.59 C160.38,387.07 165.29,390.07 195.92,408.03 C221.30,422.90 224.67,426.32 225.75,438.23 C226.60,447.51 224.53,454.20 218.90,460.42 C218.44,460.92 217.98,461.40 217.53,461.85 C213.52,465.84 208.92,468.54 204.12,469.82 C202.33,470.20 200.44,470.38 198.40,470.38 C195.09,470.38 193.25,470.21 190.41,469.02 C185.92,466.85 175.99,461.21 150.62,446.62 C146.63,444.22 143.35,442.17 140.64,440.38 C140.34,440.18 140.04,439.98 139.75,439.79 C135.49,436.93 132.72,434.74 130.76,432.79 Z" fill="rgb(249,202,79)"/>
<path d="M 121.67 582.33 C120.52,581.18 120.94,580.00 122.50,580.00 C123.32,580.00 124.00,580.67 124.00,581.50 C124.00,583.06 122.82,583.48 121.67,582.33 ZM 121.00 575.00 C121.00,574.45 121.68,574.00 122.50,574.00 C123.32,574.00 124.00,574.45 124.00,575.00 C124.00,575.55 123.32,576.00 122.50,576.00 C121.68,576.00 121.00,575.55 121.00,575.00 ZM 121.00 555.50 C121.00,553.58 121.45,552.00 122.00,552.00 C122.55,552.00 123.00,553.58 123.00,555.50 C123.00,557.42 122.55,559.00 122.00,559.00 C121.45,559.00 121.00,557.42 121.00,555.50 ZM 121.00 441.00 C121.00,440.45 121.68,440.00 122.50,440.00 C123.32,440.00 124.00,440.45 124.00,441.00 C124.00,441.55 123.32,442.00 122.50,442.00 C121.68,442.00 121.00,441.55 121.00,441.00 Z" fill="rgb(230,240,245)"/>
</g>
</svg>